<svg xmlns="http://www.w3.org/2000/svg" width="113" height="36" viewBox="0 0 113 36">
    <g fill="none" fill-rule="evenodd">
        <rect width="113" height="36" fill="#3ACE01" rx="2.7"/>
        <path fill="#FFF" d="M19.89 8.146c5.951 0 10.777 3.94 10.777 8.801 0 1.698-.59 3.284-1.61 4.628a2.27 2.27 0 0 1-.199.255l-.006.007c-.349.425-.74.824-1.172 1.192-2.98 2.81-7.886 6.155-8.534 5.639-.563-.449.927-2.643-.792-3.008-.12-.014-.24-.03-.358-.046h-.002c-5.048-.732-8.882-4.334-8.882-8.667 0-4.86 4.825-8.801 10.777-8.801z"/>
        <path fill="#3ACE01" d="M13.636 19.755h2.174a.57.57 0 0 0 .562-.573v-.048a.57.57 0 0 0-.562-.573h-1.565V14.93a.57.57 0 0 0-.562-.573h-.047a.57.57 0 0 0-.562.573v4.252a.57.57 0 0 0 .562.573zm13.47-2.665v-.048a.57.57 0 0 0-.563-.573h-1.565v-.908h1.565a.57.57 0 0 0 .562-.573v-.048a.57.57 0 0 0-.562-.573h-2.174a.57.57 0 0 0-.562.573v4.252a.57.57 0 0 0 .562.573h2.174a.57.57 0 0 0 .562-.573v-.048a.57.57 0 0 0-.562-.573h-1.565v-.908h1.565a.57.57 0 0 0 .562-.573zm-4.181 2.494a.577.577 0 0 0 .163-.402V14.93a.57.57 0 0 0-.563-.573h-.046a.57.57 0 0 0-.563.573v2.496l-2.031-2.78a.561.561 0 0 0-.488-.29h-.047a.57.57 0 0 0-.562.574v4.252a.57.57 0 0 0 .562.573h.047a.57.57 0 0 0 .562-.573v-2.543l2.046 2.85c.013.02.026.04.041.058a.473.473 0 0 0 .22.165.548.548 0 0 0 .212.043h.047a.548.548 0 0 0 .263-.067.396.396 0 0 0 .137-.104zm-5.537.171h.046a.57.57 0 0 0 .562-.573V14.93a.57.57 0 0 0-.562-.573h-.046a.57.57 0 0 0-.563.573v4.252a.57.57 0 0 0 .563.573z"/>
        <path fill="#FFF" d="M43.43 20.786h-3.017l-.574 1.714h-1.83l3.11-8.318h1.595L45.84 22.5h-1.83l-.58-1.714zm-2.553-1.388h2.089l-1.05-3.114-1.039 3.114zm5.377-.034c0-.964.217-1.731.651-2.303.435-.571 1.028-.857 1.782-.857.605 0 1.104.225 1.498.675v-3.154h1.664V22.5H50.35l-.08-.657c-.413.514-.945.771-1.595.771-.731 0-1.317-.286-1.76-.86-.441-.573-.662-1.37-.662-2.39zm1.658.12c0 .579.102 1.022.305 1.33.202.31.497.463.883.463.513 0 .874-.215 1.085-.645v-2.44c-.207-.43-.564-.645-1.073-.645-.8 0-1.2.645-1.2 1.937zm4.964-.12c0-.964.217-1.731.651-2.303.435-.571 1.028-.857 1.782-.857.605 0 1.104.225 1.498.675v-3.154h1.664V22.5h-1.498l-.08-.657c-.413.514-.945.771-1.595.771-.731 0-1.317-.286-1.76-.86-.441-.573-.662-1.37-.662-2.39zm1.658.12c0 .579.102 1.022.305 1.33.202.31.497.463.883.463.513 0 .874-.215 1.085-.645v-2.44c-.207-.43-.564-.645-1.073-.645-.8 0-1.2.645-1.2 1.937zM67.82 19.1h-3.306V22.5h-1.721v-8.318h5.44v1.388h-3.719v2.148h3.306v1.383zm4.642-1.234a4.525 4.525 0 0 0-.597-.046c-.627 0-1.039.212-1.234.634V22.5h-1.658v-6.181h1.566l.046.737c.333-.568.794-.852 1.383-.852.184 0 .356.025.517.075l-.023 1.588zm2.548 4.633h-1.664v-6.181h1.664V22.5zm-1.762-7.781c0-.248.083-.451.25-.611.166-.16.393-.24.68-.24.283 0 .508.08.677.24.168.16.252.363.252.611a.809.809 0 0 1-.255.617c-.17.16-.395.24-.674.24-.28 0-.504-.08-.675-.24a.809.809 0 0 1-.255-.617zm5.985 7.895c-.91 0-1.652-.278-2.224-.834-.572-.556-.857-1.297-.857-2.222v-.16c0-.62.12-1.176.361-1.665.241-.49.582-.867 1.024-1.132a2.885 2.885 0 0 1 1.512-.397c.85 0 1.518.267 2.006.8.488.533.732 1.29.732 2.268v.674h-3.954c.053.404.215.728.485.972.27.243.61.365 1.024.365.639 0 1.138-.23 1.498-.691l.815.908c-.25.35-.586.624-1.01.82a3.326 3.326 0 0 1-1.412.294zm-.19-5.073c-.328 0-.595.11-.8.332-.205.22-.336.537-.393.948h2.307v-.131c-.008-.366-.107-.649-.299-.849-.19-.2-.462-.3-.814-.3zm5.211-1.222l.052.714c.443-.552 1.038-.829 1.784-.829.658 0 1.148.193 1.47.577.32.385.485.96.493 1.726V22.5h-1.659v-3.953c0-.35-.076-.605-.23-.763-.152-.158-.407-.237-.762-.237-.467 0-.817.198-1.05.594V22.5h-1.659v-6.181h1.561zm4.797 3.045c0-.964.217-1.731.651-2.303.435-.571 1.029-.857 1.782-.857.605 0 1.104.225 1.498.675v-3.154h1.664V22.5h-1.498l-.08-.657c-.413.514-.945.771-1.595.771-.73 0-1.317-.286-1.759-.86-.442-.573-.663-1.37-.663-2.39zm1.659.12c0 .579.1 1.022.304 1.33.202.31.497.463.883.463.513 0 .874-.215 1.085-.645v-2.44c-.207-.43-.564-.645-1.073-.645-.8 0-1.2.645-1.2 1.937zm8.584 1.308c0-.202-.1-.361-.301-.477-.201-.116-.523-.22-.967-.312-1.477-.308-2.215-.933-2.215-1.873 0-.549.228-1.007.686-1.374.457-.368 1.054-.552 1.793-.552.788 0 1.418.185 1.89.555.473.369.71.849.71 1.44h-1.66a.797.797 0 0 0-.229-.586c-.153-.155-.392-.232-.717-.232-.28 0-.495.063-.648.189a.594.594 0 0 0-.23.48c0 .182.087.33.261.442.174.113.468.21.881.292a7.22 7.22 0 0 1 1.044.277c.876.32 1.314.874 1.314 1.662 0 .564-.242 1.02-.728 1.369-.486.348-1.114.522-1.882.522-.52 0-.983-.092-1.386-.277a2.323 2.323 0 0 1-.95-.76 1.76 1.76 0 0 1-.344-1.042h1.572c.015.293.124.518.327.674.203.156.475.234.815.234.318 0 .558-.06.72-.18a.56.56 0 0 0 .244-.471z"/>
    </g>
</svg>
