<svg id="Layer_1" data-name="Layer 1" xmlns="http://www.w3.org/2000/svg" viewBox="0 0 254 299"><defs><style>.cls-1,.cls-2,.cls-3,.cls-4{fill:none;stroke:#00aad3;stroke-miterlimit:10;}.cls-1{stroke-width:15px;}.cls-2{stroke-width:7px;stroke-dasharray:16.02 16.02;}.cls-3{stroke-width:4px;}.cls-4{stroke-width:6px;stroke-dasharray:10.38 10.38;}.cls-5{fill:#fff;}.cls-6,.cls-7{fill:#00aad3;}.cls-7{font-size:58.06px;font-family:FuturaBT-BoldCondensed, Futura BdCn BT;font-weight:700;}.cls-8{letter-spacing:-0.03em;}.cls-9{letter-spacing:-0.02em;}</style></defs><title>Logo</title><circle class="cls-1" cx="111.06" cy="113.66" r="60.5"/><circle class="cls-2" cx="111.06" cy="113.66" r="71.39"/><circle class="cls-3" cx="168.99" cy="33.56" r="19.6"/><circle class="cls-4" cx="168.99" cy="33.56" r="23.13" transform="translate(87.61 185.42) rotate(-73.05)"/><path class="cls-5" d="M235.56,152.6c-11.82,7.21-29.3,2.44-39-10.65s-8.05-29.56,3.78-36.77c8.33-5.08,19.48-4.21,28.74,1.34L211.81,117,212,132.5l15.75,6L245,128C247.2,137.83,243.9,147.51,235.56,152.6Z"/><polygon class="cls-5" points="112.87 208.22 99.28 190.78 199.2 127.8 212.8 145.24 112.87 208.22"/><path class="cls-5" d="M75.72,183.57c11.82-7.21,29.3-2.44,39,10.65s8,29.55-3.78,36.76c-8.33,5.09-19.48,4.22-28.74-1.33l17.24-10.51-.21-15.47-15.75-6L66.27,208.19C64.08,198.34,67.38,188.66,75.72,183.57Z"/><path class="cls-6" d="M238.56,153.45c-11.82,7.21-29.3,2.44-39-10.66s-8.05-29.55,3.78-36.76c8.33-5.08,19.48-4.21,28.74,1.33l-17.24,10.52.21,15.47,15.75,6L248,128.83C250.2,138.68,246.9,148.36,238.56,153.45Z"/><polygon class="cls-6" points="115.87 209.07 102.28 191.63 202.2 128.65 215.8 146.08 115.87 209.07"/><path class="cls-6" d="M78.72,184.42c11.82-7.21,29.3-2.44,39,10.65s8,29.55-3.78,36.76c-8.33,5.09-19.48,4.22-28.74-1.33L102.47,220l-.21-15.47-15.75-6L69.27,209C67.08,199.19,70.38,189.5,78.72,184.42Z"/><text class="cls-7" transform="translate(4.23 290.74)"><tspan class="cls-8">A</tspan><tspan x="25.43" y="0">TMA AU</tspan><tspan class="cls-9" x="185.39" y="0">T</tspan><tspan x="206.97" y="0">O</tspan></text></svg>