<svg id="Layer_1" data-name="Layer 1" xmlns="http://www.w3.org/2000/svg" viewBox="0 0 254 299"><defs><style>.cls-1,.cls-2,.cls-3,.cls-4{fill:none;stroke:#fff;stroke-miterlimit:10;}.cls-1{stroke-width:15px;}.cls-2{stroke-width:7px;stroke-dasharray:16.02 16.02;}.cls-3{stroke-width:4px;}.cls-4{stroke-width:6px;stroke-dasharray:10.38 10.38;}.cls-5{fill:#231f20;}.cls-6,.cls-7{fill:#fff;}.cls-7{font-size:58.06px;font-family:FuturaBT-BoldCondensed, Futura BdCn BT;font-weight:700;}.cls-8{letter-spacing:-0.03em;}.cls-9{letter-spacing:-0.02em;}</style></defs><title>Logo</title><circle class="cls-1" cx="111.61" cy="109.41" r="60.5"/><circle class="cls-2" cx="111.61" cy="109.41" r="71.39" transform="translate(-44.68 110.97) rotate(-45)"/><circle class="cls-3" cx="169.54" cy="29.31" r="19.6"/><circle class="cls-4" cx="169.54" cy="29.31" r="23.13" transform="translate(51.39 154.38) rotate(-56.44)"/><path class="cls-5" d="M236.11,148.34c-11.82,7.21-29.3,2.45-39-10.65s-8.05-29.55,3.78-36.76c8.33-5.08,19.48-4.21,28.74,1.33l-17.24,10.51.21,15.48,15.75,6,17.24-10.51C247.75,133.58,244.45,143.26,236.11,148.34Z"/><polygon class="cls-5" points="113.42 203.97 99.83 186.53 199.75 123.55 213.35 140.98 113.42 203.97"/><path class="cls-5" d="M76.27,179.32c11.82-7.21,29.3-2.44,39,10.65s8,29.55-3.78,36.76C103.19,231.82,92,231,82.78,225.4L100,214.89l-.21-15.47-15.75-6L66.82,203.94C64.63,194.08,67.93,184.4,76.27,179.32Z"/><path class="cls-6" d="M239.11,149.19c-11.82,7.21-29.3,2.45-39-10.65S192,109,203.86,101.78c8.33-5.08,19.48-4.21,28.74,1.33l-17.24,10.51.21,15.47,15.75,6,17.24-10.51C250.75,134.43,247.45,144.11,239.11,149.19Z"/><polygon class="cls-6" points="116.42 204.82 102.83 187.38 202.75 124.4 216.35 141.83 116.42 204.82"/><path class="cls-6" d="M79.27,180.17c11.82-7.21,29.3-2.44,39,10.65s8,29.55-3.78,36.76c-8.33,5.09-19.48,4.21-28.74-1.33L103,215.74l-.21-15.47-15.75-6L69.82,204.79C67.63,194.93,70.93,185.25,79.27,180.17Z"/><text class="cls-7" transform="translate(4.78 286.49)"><tspan class="cls-8">A</tspan><tspan x="25.43" y="0">TMA AU</tspan><tspan class="cls-9" x="185.39" y="0">T</tspan><tspan x="206.97" y="0">O</tspan></text></svg>